# xmcd
#
# Track frame offsets:
#	150
#	16080
#	40258
#	58281
#
# Disc length: 1023 seconds
#
# Revision: 0
# Processed by: cddbd v1.5.2PL0 Copyright (c) Steve Scherf et al.
# Submitted via: audiograbber 1.83.01
#
DISCID=2c03fd04
DTITLE=Novaspace - So lonely (Maxi)
DYEAR=2004
DGENRE=Pop
TTITLE0=So lonely (Radio Edit)
TTITLE1=So lonely (Extended Version)
TTITLE2=Summer of love
TTITLE3=You
EXTD=
EXTT0=
EXTT1=
EXTT2=
EXTT3=
PLAYORDER=
